<svg xmlns="http://www.w3.org/2000/svg" xmlns:xlink="http://www.w3.org/1999/xlink" version="1.1" id="Capa_1" viewBox="0 0 460 460" xml:space="preserve" fill="#000000"><g id="SVGRepo_bgCarrier" stroke-width="0"></g><g id="SVGRepo_tracerCarrier" stroke-linecap="round" stroke-linejoin="round"></g><g id="SVGRepo_iconCarrier"> <g id="XMLID_1005_"> <path id="XMLID_1106_" style="fill:#4A4C4E;" d="M244.648,460h-29.296c-3.344,0-6.466-1.671-8.321-4.453l-15.352-23.028 c-1.095-1.643-1.679-3.573-1.679-5.547V350h80v76.972c0,1.974-0.584,3.904-1.68,5.547l-15.352,23.028 C251.114,458.329,247.992,460,244.648,460z"></path> <path id="XMLID_1094_" style="fill:#97948c;" d="M329.752,307.671c-22.703,16.478-42.566,36.55-58.127,59.891L270,370h-80 l-1.628-2.443c-15.421-23.132-34.951-43.219-57.522-59.451c-43.029-30.946-71.007-81.503-70.849-138.587 C60.261,75.337,138.031-1.183,232.205,0.014C325.077,1.195,400,76.848,400,170C400,226.62,372.319,276.775,329.752,307.671z"></path> <path id="XMLID_1089_" style="fill:#97948c;" d="M370,150c0,77.32-62.68,140-140,140S90,227.32,90,150S152.68,10,230,10 S370,72.68,370,150z"></path> <path id="XMLID_1071_" style="fill:#FFFFFF;" d="M330.005,113.112c-3.407,0-6.667-1.944-8.183-5.243 C305.385,72.107,269.342,49,230,49c-4.971,0-9-4.029-9-9s4.029-9,9-9c46.351,0,88.813,27.222,108.178,69.352 c2.076,4.516,0.097,9.86-4.419,11.937C332.541,112.848,331.263,113.112,330.005,113.112z M348.833,141.083 c0-4.924-3.992-8.916-8.916-8.916S331,136.159,331,141.083c0,4.924,3.992,8.916,8.916,8.916S348.833,146.007,348.833,141.083z"></path> <path id="XMLID_1070_" style="fill:#515556;" d="M299.851,211.213l-40,160c-0.568,2.271-2.606,3.788-4.847,3.788 c-0.401,0-0.81-0.048-1.217-0.15c-2.679-0.669-4.308-3.384-3.638-6.063l35.484-141.937c-18.263,5.051-36.947,7.585-55.634,7.585 s-37.371-2.534-55.634-7.585l35.484,141.937c0.67,2.679-0.959,5.394-3.638,6.063c-0.407,0.102-0.815,0.15-1.217,0.15 c-2.24,0-4.279-1.516-4.847-3.788l-40-160c-0.67-2.679,0.959-5.394,3.638-6.063c2.678-0.672,5.394,0.958,6.063,3.638l1.709,6.837 c38.235,11.745,78.646,11.745,116.881,0l1.709-6.837c0.67-2.678,3.386-4.31,6.063-3.638 C298.892,205.819,300.52,208.534,299.851,211.213z"></path> <path id="XMLID_1315_" style="fill:#6C6E71;" d="M270,380h-80c-5.523,0-10-4.477-10-10v0c0-5.523,4.477-10,10-10h80 c5.523,0,10,4.477,10,10v0C280,375.523,275.523,380,270,380z M280,400L280,400c0-5.523-4.477-10-10-10h-80c-5.523,0-10,4.477-10,10 v0c0,5.523,4.477,10,10,10h80C275.523,410,280,405.523,280,400z"></path> </g> </g></svg>